<?xml version="1.0" encoding="UTF-8"?>
<svg width="900px" height="220px" viewBox="0 0 900 220" version="1.1" xmlns="http://www.w3.org/2000/svg" xmlns:xlink="http://www.w3.org/1999/xlink">
    <!-- Generator: Sketch 45.2 (43514) - http://www.bohemiancoding.com/sketch -->
    <title>logo</title>
    <desc>Created with Sketch.</desc>
    <defs>
        <rect id="path-1" x="0.539151231" y="0.509842211" width="178.937871" height="178.937871" rx="35"></rect>
        <linearGradient x1="69.3388847%" y1="0%" x2="51.5979711%" y2="101.228918%" id="linearGradient-3">
            <stop stop-color="#FBAB3F" offset="0%"></stop>
            <stop stop-color="#FC7032" offset="54.4068682%"></stop>
            <stop stop-color="#FD2D22" offset="100%"></stop>
        </linearGradient>
    </defs>
    <g id="Page-1" stroke="none" stroke-width="1" fill="none" fill-rule="evenodd">
        <g id="logo">
            <g id="Group-Copy" transform="translate(1.000000, 20.000000)">
                <mask id="mask-2" fill="white">
                    <use xlink:href="#path-1"></use>
                </mask>
                <use id="Mask" fill="#D8D8D8" xlink:href="#path-1"></use>
                <g mask="url(#mask-2)">
                    <g transform="translate(-8.917335, -8.946644)">
                        <rect id="Rectangle" fill="url(#linearGradient-3)" x="0" y="0" width="197.539721" height="197.539721"></rect>
                        <path d="M46.3386013,104.246503 C46.3386013,104.246503 66.5070395,119.013622 76.5220372,129.119569 C86.5370349,139.225517 92.3020082,152.19123 92.3020082,152.19123 L46.3596424,197.230524 L0.0739013956,197.539721 L0.0739013956,152.491572 L46.3386013,104.246503 Z" id="Rectangle-2" fill="#DB2817" opacity="0.458899457"></path>
                        <path d="M129.961998,76.8453517 C129.927642,76.832843 129.893343,76.8202173 129.8591,76.807475 L129.962003,76.8453533 Z M124.375172,73.3236838 C124.990768,72.7842426 127.395409,70.4602908 128.358723,66.3180708 C128.766123,64.5662687 129.007349,62.645737 128.965801,60.2781234 C128.924253,57.9105099 128.490812,56.3673938 129.222346,54.5229928 C130.93275,50.2105922 135.724067,50.5516968 137.913464,51.4473039 C140.102862,52.342911 139.917707,52.8441686 139.917707,52.8441686 C139.917707,52.8441686 136.010671,52.4416313 136.22759,55.3133399 C136.254948,55.6755202 136.386827,56.0612003 136.664852,56.4746927 C136.942877,56.8881851 139.518804,59.4207626 140.650889,61.452416 C142.134912,64.1156636 141.970155,66.8688683 141.744237,68.2755573 C140.993639,72.9491806 136.816932,77.0280681 136.021051,77.7689129 C144.329569,77.39859 150.951879,70.5454401 150.951879,62.1455666 C150.951879,53.5083309 143.950016,46.5064679 135.31278,46.5064679 C126.675545,46.5064679 119.673682,53.5083309 119.673682,62.1455666 C119.673682,66.5253527 121.474085,70.4846319 124.375172,73.3236838 Z M164.280834,33.1968403 C164.280834,33.1968403 167.125269,50.6898281 153.665379,74.9892862 C140.205489,99.2887442 97.2986183,122.015372 97.2986183,122.015372 L101.309371,143.093371 L87.9926006,156.410988 L76.1857876,133.001829 L67.8392761,136.323356 L61.1651263,129.545573 C61.1651263,129.545573 62.0362691,126.795482 62.5807802,125.412375 C63.1252913,124.029267 64.4133496,121.294789 64.4133496,121.294789 L41.0628929,109.459149 L54.4310411,96.0844585 L75.4301623,100.914237 C75.4301623,100.914237 92.4242297,66.2582222 118.226623,48.002681 C144.029017,29.7471399 164.280834,33.1968403 164.280834,33.1968403 Z M57.0692017,130.104977 C57.0692017,130.104977 55.2400491,130.104977 52.9568461,133.08373 C50.6736432,136.062483 49.1920007,148.329249 49.1920007,148.329249 C49.1920007,148.329249 62.0868278,146.359025 64.6943126,144.109879 C67.3017975,141.860734 67.5484281,140.154993 67.5484281,140.154993 C67.5484281,140.154993 70.1989076,146.498068 64.832549,153.604758 C59.4661903,160.711448 33.0078333,164.602393 33.0078333,164.602393 C33.0078333,164.602393 36.0386449,141.499406 41.9153975,134.511144 C47.7921501,127.522883 57.0692017,130.104977 57.0692017,130.104977 Z" id="Combined-Shape" fill="#FFFFFF"></path>
                    </g>
                </g>
            </g>
            <g id="Group" transform="translate(212.000000, 58.500000)" fill="#323232">
                <path d="M0.990153066,95.68 L7.71015307,79.16 C13.3101531,82.52 21.2901531,85.18 29.9701531,85.18 C37.8101531,85.18 44.9501531,81.54 44.9501531,74.12 C44.9501531,68.8 40.8901531,65.3 32.2101531,60.82 C22.1301531,55.36 12.6101531,48.08 12.6101531,35.76 C12.6101531,16.72 29.2701531,5.1 49.8501531,5.1 C61.3301531,5.1 68.0501531,7.62 72.1101531,9.86 L65.8101531,26.66 C62.7301531,24.98 56.0101531,22.32 48.1701531,22.46 C38.7901531,22.46 33.8901531,27.22 33.8901531,32.4 C33.8901531,37.86 39.6301531,41.22 47.6101531,45.7 C59.0901531,51.72 66.3701531,59.42 66.3701531,70.62 C66.3701531,91.62 49.0101531,102.54 28.0101531,102.54 C14.8501531,102.26 5.47015307,99.04 0.990153066,95.68 Z" id="Path"></path>
                <path d="M71.930153,32.54 L92.370153,32.54 L92.510153,61.52 C92.510153,69.36 92.230153,75.8 91.810153,83.36 L92.090153,83.36 C94.470153,76.08 97.550153,69.22 100.490153,62.36 L113.930153,32.54 L130.450153,32.54 L132.130153,61.38 C132.410153,69.36 132.690153,76.08 132.270153,83.36 L132.690153,83.36 C134.930153,75.8 137.310153,68.94 140.250153,61.1 L151.870153,32.54 L172.170153,32.54 L138.850153,101 L119.950153,101 L117.990153,77.2 C117.570153,70.06 117.430153,63.48 117.430153,55.22 L117.150153,55.22 C113.510153,64.88 111.830153,70.06 109.030153,76.22 L97.410153,101 L78.370153,101 L71.930153,32.54 Z" id="Path"></path>
                <polygon id="Path" points="185.010153 101 164.850153 101 177.870153 32.54 198.030153 32.54"></polygon>
                <path d="M190.470153,24 L190.330153,24 C184.870153,24 180.670153,20.22 180.670153,14.2 C180.810153,7.34 186.130153,2.72 192.290153,2.72 C198.170153,2.72 202.370153,6.64 202.370153,12.66 C202.370153,19.8 196.910153,24 190.470153,24 Z" id="Path"></path>
                <path d="M245.08655,32.54 L232.710153,32.54 L233.410153,29.18 C234.670153,22.32 238.730153,16.72 245.170153,16.72 C247.830153,16.72 249.930153,17 251.750153,17.84 L255.250153,1.74 C253.010153,0.76 249.370153,0.06 244.470153,0.06 C237.750153,0.06 230.470153,1.88 225.010153,6.64 C218.150153,12.38 214.930153,20.92 213.530153,28.9 L212.830153,32.54 L204.010153,32.54 L201.070153,47.8 L209.890153,47.8 L199.950153,101 L219.970153,101 L229.910153,47.8 L242.273035,47.8 L253.110153,47.8 L247.790153,74.96 C246.810153,80.28 246.390153,83.92 246.390153,87.7 C246.390153,96.24 252.130153,102.54 264.170153,102.54 C268.510153,102.54 273.550153,101.98 276.070153,101 L278.450153,85.18 C276.630153,85.46 274.670153,85.46 272.850153,85.46 C268.510153,85.46 267.110153,83.08 267.110153,79.72 C267.110153,77.34 267.670153,73.7 268.230153,71.04 L272.850153,47.8 L287.410153,47.8 L290.350153,32.54 L275.790153,32.54 L279.290153,13.92 L258.570153,19.66 L256.050153,32.54 L245.08655,32.54 Z" id="Combined-Shape"></path>
                <path d="M340.150152,82.52 L341.550152,97.08 C333.570152,101.14 323.630152,102.54 316.070152,102.54 C296.470152,102.54 286.390152,91.34 286.390152,73.56 C286.390152,52.7 301.510152,31 326.290152,31 C340.150152,31 350.090152,38.7 350.090152,51.44 C350.090152,68.94 333.150152,75.24 305.710152,74.54 C305.710152,76.5 306.410152,79.58 307.810152,81.54 C310.470152,85.04 315.090152,86.86 320.970152,86.86 C328.390152,86.86 334.690152,85.18 340.150152,82.52 Z M331.190152,51.58 L331.190152,51.44 C331.190152,48.08 328.390152,45.7 323.770152,45.7 C314.390152,45.7 309.070152,53.4 307.670152,59.84 C323.350152,59.98 331.190152,57.74 331.190152,51.58 Z" id="Combined-Shape"></path>
                <path d="M370.210152,101 L350.050152,101 L357.750152,60.26 C359.710152,49.9 360.550152,38.42 361.250152,32.54 L378.750152,32.54 C378.330152,37.16 377.910152,41.78 377.490152,46.54 L377.910152,46.54 C382.670152,37.44 390.370152,31 399.750152,31 C401.010152,31 402.270152,31 403.530152,31.14 L399.610152,50.74 C398.630152,50.74 397.510152,50.6 396.390152,50.6 C383.510152,50.6 377.490152,62.08 374.970152,75.52 L370.210152,101 Z" id="Path"></path>
                <path d="M414.570152,95.96 C418.490152,99.32 427.730152,102.4 437.250152,102.54 C458.390152,102.54 471.270152,89.66 471.270152,73.28 C471.270152,61.66 464.830152,54.24 453.210152,48.08 C443.410152,42.62 438.650152,38.28 438.650152,30.58 C438.650152,22.88 445.650152,15.18 457.270152,15.18 C464.830152,15.04 470.710152,17.84 473.650152,19.52 L477.850152,10.14 C474.490152,7.9 467.630152,5.1 458.530152,5.1 C441.170152,5.1 426.610152,16.02 426.610152,32.82 C426.610152,43.04 433.330152,50.6 445.370152,57.04 C455.170152,62.5 459.230152,67.68 459.230152,74.68 C459.230152,86.16 449.430152,92.46 438.790152,92.46 C430.950152,92.46 423.810152,89.8 418.770152,86.44 L414.570152,95.96 Z" id="Path"></path>
                <path d="M480.890152,33.24 L492.370152,33.24 L494.750152,71.32 C495.310152,79.72 495.170152,84.06 495.030152,89.52 L495.450152,89.52 C496.990152,85.18 499.510152,79.3 502.870152,72.58 L523.030152,33.24 L533.110152,33.24 L537.310152,71.88 C538.010152,79.3 538.570152,85.04 538.430152,89.52 L538.710152,89.52 C540.530152,84.06 542.490152,78.88 545.150152,72.44 L563.490152,33.24 L575.250152,33.24 L541.790152,101 L531.010152,101 L526.530152,64.18 C525.830152,57.88 525.550152,52.14 525.550152,46.26 L525.270152,46.26 C522.470152,52.7 520.510152,57.88 517.430152,63.9 L497.970152,101 L487.190152,101 L480.890152,33.24 Z" id="Path"></path>
                <polygon id="Path" points="582.490152 101 570.870152 101 583.890152 33.24 595.510152 33.24"></polygon>
                <path d="M592.710152,21.62 L592.570152,21.62 C588.650152,21.62 585.990152,18.54 585.990152,14.34 C586.130152,9.86 589.490152,6.5 593.690152,6.5 C597.890152,6.5 600.550152,9.58 600.550152,13.78 C600.410152,18.4 597.190152,21.62 592.710152,21.62 Z" id="Path"></path>
                <path d="M611.710152,101 L600.230152,101 L611.290152,42.48 L602.330152,42.48 L604.010152,33.24 L613.110152,33.24 L613.810152,29.74 C615.350152,20.22 618.710152,11.54 624.870152,6.08 C629.070152,2.16 635.090152,0.06 640.970152,0.06 C645.590152,0.06 648.670152,0.9 650.210152,1.88 L647.690152,11.12 C645.870152,10.28 643.490152,9.86 640.830152,9.86 C631.590152,9.86 627.110152,18.82 625.150152,30.02 L624.590152,33.24 L639.710152,33.24 L638.055786,42.3399963 L622.992892,42.3312147 L611.710152,101 Z" id="Path"></path>
                <path d="M651.570152,20.78 L663.750152,17 L660.670152,33.24 L676.910152,33.24 L675.090152,42.34 L658.850152,42.34 L652.550152,75.24 C651.850152,79.02 651.290152,82.52 651.290152,86.02 C651.290152,90.08 653.250152,92.6 657.730152,92.6 C659.690152,92.6 661.650152,92.46 663.190152,92.04 L662.630152,101.28 C660.530152,101.98 657.030152,102.54 653.670152,102.54 C643.310152,102.54 639.390152,96.24 639.390152,89.38 C639.390152,85.46 639.810152,81.54 640.790152,76.64 L647.510152,42.34 L637.710152,42.3399963 L639.530152,33.24 L649.190152,33.24 L651.570152,20.78 Z" id="Path"></path>
            </g>
        </g>
    </g>
</svg>